<?xml version="1.0" encoding="UTF-8"?>
<svg version="1.1" viewBox="0 0 24 24" xmlns="http://www.w3.org/2000/svg">
 <path d="m8.2 5.9 5e-3 0.4h-1.5l6e-3 0.66v5e-3l-6.8 2e-3v0.21l-2e-3 0.84 0.02 0.041c0.21 0.47 0.66 0.9 1.3 1.3 0.59 0.41 1.3 0.8 2.1 1.1 1.6 0.66 3.5 1.1 5 1.1 0.75-0.01 1.3 0.23 1.6 0.67 0.34 0.43 0.51 1.1 0.52 1.9l-2.6 2.1 8e-3 1.9h12l-4e-3 -1.8-2.6-2.2c0.055-2 0.71-3.4 1.8-4.4 1.1-0.98 2.6-1.5 4.4-1.6l0.2-0.015 2e-3 -2.2z" fill="#b3b3b3"/>
 <path d="m8.2 5.9 5e-3 0.4h-1.5l6e-3 0.66v5e-3l-6.8 2e-3v0.21l-2e-3 0.84 0.02 0.041c0.21 0.47 0.66 0.9 1.3 1.3 0.59 0.41 1.3 0.8 2.1 1.1 1.6 0.66 3.5 1.1 5 1.1 0.75-0.01 1.3 0.23 1.6 0.67 0.34 0.43 0.51 1.1 0.52 1.9l-2.6 2.1 8e-3 1.9h12l-4e-3 -1.8-2.6-2.2c0.055-2 0.71-3.4 1.8-4.4 1.1-0.98 2.6-1.5 4.4-1.6l0.2-0.015 2e-3 -2.2zm0.42 0.42 15 6e-3 -4e-3 1.5c-1.7 0.16-3.3 0.67-4.4 1.7-0.91 0.82-1.4 2.1-1.7 3.5l-1.6 4e-3 2e-3 0.42 1.5-4e-3c-0.027 0.23-0.11 0.4-0.12 0.64l-0.89-3e-3 -2e-3 0.42 1 4e-3 2.1 1.8-2.9 2e-3c-0.72-0.68-1.6-1.1-2.4-1.2-0.82-0.04-1.6 0.32-2.4 1l-3-0.024 2.2-1.8v-0.1c2e-3 -0.94-0.2-1.7-0.64-2.3-0.4-0.5-1-0.75-1.7-0.79l-8e-3 -4.5h8e-3zm-1.4 0.4h1l8e-3 4.4c-1.4-0.02-3.1-0.4-4.6-1-0.79-0.32-1.5-0.7-2.1-1.1-0.55-0.38-0.93-0.78-1.1-1.1v-0.51l6.3-2e-3v2.2h0.42v-2.2h4e-3l-4e-3 -0.44v-0.23zm6.9 8.8c0.75 0.037 1.5 0.44 2.2 1.1l-2e-3 1.1h-4.3l-6e-3 -1.2c0.71-0.72 1.4-1 2.2-0.99zm-5.8 1 3.2 0.023 6e-3 1.2h-3.2zm12 0.14 2e-3 1h-3.1v-1z" fill="#616161"/>
</svg>
