<?xml version="1.0" encoding="UTF-8"?>
<svg width="32" height="32" version="1.1" viewBox="0 0 8.5 8.5" xmlns="http://www.w3.org/2000/svg">
 <path class="cls-2" d="m5.2 0.87c0-0.015-0.0012-0.86-0.0024-0.87h3.3v8.5h-8.5v-8.5h3.3c0 0.015-0.0024 0.86-0.0024 0.87" fill="#654ff0" style="paint-order:stroke fill markers"/>
 <path d="m3.9 0.076v0.53h0.65v-0.53zm2.6 0.75c-0.14 0-0.27 0.029-0.38 0.086-0.11 0.056-0.21 0.14-0.3 0.26v-0.3h-0.65v2.8h0.65v-1.1c0.09 0.12 0.19 0.21 0.3 0.26 0.11 0.056 0.23 0.084 0.38 0.084 0.25 0 0.46-0.1 0.62-0.3 0.16-0.2 0.24-0.46 0.24-0.77 0-0.31-0.081-0.57-0.24-0.77-0.16-0.2-0.37-0.3-0.62-0.3zm-2.6 0.049v2c0 0.16-0.023 0.27-0.07 0.33-0.046 0.056-0.13 0.084-0.26 0.084h-0.11v0.43h0.32c0.25 3e-7 0.44-0.073 0.57-0.22 0.13-0.14 0.2-0.35 0.2-0.63v-2zm2.4 0.42c0.14 0 0.25 0.051 0.32 0.15 0.074 0.1 0.11 0.25 0.11 0.45 0 0.19-0.037 0.34-0.11 0.44-0.073 0.1-0.18 0.15-0.32 0.15-0.14 0-0.25-0.051-0.32-0.15-0.074-0.1-0.11-0.25-0.11-0.44 0-0.19 0.037-0.34 0.11-0.44 0.075-0.1 0.18-0.16 0.32-0.16zm-0.051 2v2.8h0.65v-0.85l0.8 0.85h0.79l-1.1-1.1 1-0.94h-0.76l-0.75 0.75v-1.5zm-2.7 0.8 0.91 2.1-0.018 0.057c-0.028 0.091-0.068 0.15-0.12 0.19-0.05 0.035-0.13 0.053-0.24 0.053h-0.2v0.43h0.38c0.19 0 0.34-0.045 0.45-0.14 0.12-0.09 0.22-0.25 0.3-0.48l0.86-2.2h-0.65l-0.47 1.4-0.55-1.4z" fill="#f37726" stop-color="#000000" stroke-width=".046" style="paint-order:stroke fill markers"/>
</svg>
